<svg width="81" height="26" viewBox="0 0 81 26" fill="none" xmlns="http://www.w3.org/2000/svg">
<path d="M7.88287 7.42121V8.66395H0.118593V7.42121H7.88287ZM2.67248 24.9336V4.6963C2.67248 3.8146 2.87391 3.06212 3.27675 2.43885C3.6796 1.81558 4.20786 1.34052 4.86153 1.01369C5.52281 0.686849 6.23349 0.523431 6.99357 0.523431C7.39642 0.523431 7.73846 0.557634 8.01969 0.626042C8.30852 0.686849 8.55935 0.759058 8.77217 0.842667L8.36173 2.07401C8.18691 2.0132 7.99688 1.95999 7.79166 1.91439C7.59404 1.86878 7.35841 1.84598 7.08478 1.84598C6.20308 1.84598 5.4772 2.11581 4.90714 2.65547C4.33707 3.19513 4.05204 3.94762 4.05204 4.91293L4.04064 24.9336H2.67248ZM16.4452 25.3098C15.4343 25.3098 14.507 25.1084 13.6633 24.7056C12.8272 24.3027 12.1546 23.7137 11.6453 22.9384C11.1436 22.1631 10.8928 21.2206 10.8928 20.1108C10.8928 19.3812 11.022 18.7389 11.2805 18.184C11.5389 17.6292 11.9379 17.1503 12.4776 16.7475C13.0173 16.3446 13.7089 16.014 14.5526 15.7556C15.3963 15.4895 16.4034 15.2843 17.574 15.1399C18.4633 15.0335 19.2576 14.9309 19.9568 14.8321C20.6561 14.7256 21.2034 14.5622 21.5986 14.3418C22.0015 14.1214 22.2029 13.7869 22.2029 13.3385V12.6088C22.2029 11.3319 21.8 10.3171 20.9944 9.56465C20.1887 8.81217 19.0789 8.43593 17.6652 8.43593C16.411 8.43593 15.3545 8.71336 14.4956 9.26822C13.6443 9.81548 13.0477 10.5224 12.7056 11.3889L11.3945 10.8986C11.7289 10.0625 12.2116 9.36703 12.8424 8.81217C13.4809 8.25731 14.2106 7.84306 15.0315 7.56943C15.86 7.2958 16.7265 7.15898 17.631 7.15898C18.4139 7.15898 19.1587 7.26919 19.8656 7.48962C20.5801 7.71004 21.2148 8.04448 21.7696 8.49293C22.3321 8.94138 22.7768 9.51525 23.1036 10.2145C23.4304 10.9062 23.5938 11.7347 23.5938 12.7V24.9336H22.2029V21.7754H22.1003C21.7962 22.4291 21.3782 23.0258 20.8461 23.5654C20.3217 24.0975 19.687 24.5231 18.9421 24.8424C18.2048 25.154 17.3725 25.3098 16.4452 25.3098ZM16.5821 24.0215C17.6766 24.0215 18.6457 23.7555 19.4894 23.2234C20.3407 22.6837 21.0058 21.9465 21.4846 21.0115C21.9635 20.0766 22.2029 19.0163 22.2029 17.8306V15.2539C22.0281 15.4059 21.7734 15.5427 21.439 15.6643C21.1122 15.7784 20.7397 15.881 20.3217 15.9722C19.9112 16.0558 19.478 16.1318 19.0219 16.2002C18.5735 16.261 18.1364 16.318 17.7108 16.3712C16.4338 16.5232 15.3925 16.7589 14.5868 17.0781C13.7887 17.3897 13.2035 17.8002 12.831 18.3094C12.4662 18.8187 12.2838 19.4344 12.2838 20.1565C12.2838 21.3498 12.6942 22.2923 13.5151 22.984C14.336 23.6757 15.3583 24.0215 16.5821 24.0215ZM30.8166 13.5779V24.9336H29.4256V7.42121H30.7824V10.1917H30.9192C31.3296 9.28722 31.9871 8.56134 32.8916 8.01408C33.7961 7.46682 34.8716 7.19319 36.1182 7.19319C37.2963 7.19319 38.33 7.44401 39.2193 7.94567C40.1162 8.44733 40.8155 9.16181 41.3172 10.0891C41.8264 11.0088 42.081 12.1071 42.081 13.3841V24.9336H40.6901V13.4411C40.6901 11.9513 40.2454 10.7542 39.3561 9.84969C38.4744 8.93758 37.3077 8.48153 35.8559 8.48153C34.883 8.48153 34.0165 8.69436 33.2564 9.12C32.4964 9.54565 31.8997 10.1423 31.4664 10.91C31.0332 11.6701 30.8166 12.5594 30.8166 13.5779ZM50.4724 7.42121L54.0068 13.8857L57.5982 7.42121H61.9649L56.6861 16.1774L62.0561 24.9336H57.7122L54.0068 18.6287L50.3356 24.9336H45.9575L51.2933 16.1774L46.0943 7.42121H50.4724ZM72.1377 25.2756C70.4275 25.2756 68.9453 24.8994 67.6912 24.1469C66.437 23.3944 65.4641 22.3417 64.7725 20.9887C64.0884 19.6358 63.7463 18.0548 63.7463 16.2458C63.7463 14.4368 64.0884 12.852 64.7725 11.4915C65.4641 10.1309 66.437 9.0744 67.6912 8.32191C68.9453 7.56943 70.4275 7.19319 72.1377 7.19319C73.8479 7.19319 75.3301 7.56943 76.5842 8.32191C77.8383 9.0744 78.8074 10.1309 79.4915 11.4915C80.1832 12.852 80.529 14.4368 80.529 16.2458C80.529 18.0548 80.1832 19.6358 79.4915 20.9887C78.8074 22.3417 77.8383 23.3944 76.5842 24.1469C75.3301 24.8994 73.8479 25.2756 72.1377 25.2756ZM72.1605 21.9693C73.0878 21.9693 73.8631 21.7146 74.4864 21.2054C75.1096 20.6885 75.5733 19.9968 75.8773 19.1303C76.189 18.2638 76.3448 17.2985 76.3448 16.2344C76.3448 15.1627 76.189 14.1936 75.8773 13.3271C75.5733 12.453 75.1096 11.7575 74.4864 11.2406C73.8631 10.7238 73.0878 10.4654 72.1605 10.4654C71.2104 10.4654 70.4199 10.7238 69.789 11.2406C69.1658 11.7575 68.6983 12.453 68.3867 13.3271C68.0826 14.1936 67.9306 15.1627 67.9306 16.2344C67.9306 17.2985 68.0826 18.2638 68.3867 19.1303C68.6983 19.9968 69.1658 20.6885 69.789 21.2054C70.4199 21.7146 71.2104 21.9693 72.1605 21.9693Z" fill="#FCFEFF"/>
</svg>
