<svg width="32" height="31" viewBox="0 0 32 31" fill="none" xmlns="http://www.w3.org/2000/svg">
<g clip-path="url(#clip0_893_186)">
<path d="M10.8112 1.09873C7.71039 2.16109 5.03625 4.17749 3.18157 6.85176C1.32688 9.52602 0.389433 12.7172 0.506905 15.9565C0.624378 19.1959 1.79058 22.3126 3.83423 24.849C5.87787 27.3854 8.69122 29.2077 11.8611 30.0482C14.4309 30.7031 17.1234 30.7319 19.707 30.132C22.0474 29.6128 24.2113 28.5023 25.9866 26.909C27.8343 25.2002 29.1755 23.0263 29.8659 20.6211C30.6161 18.0055 30.7496 15.2549 30.2563 12.5804H15.8252V18.4924H24.1827C24.0157 19.4353 23.6578 20.3353 23.1303 21.1384C22.6029 21.9415 21.9169 22.6313 21.1132 23.1664C20.0928 23.8334 18.9423 24.282 17.7358 24.4834C16.5258 24.7057 15.2847 24.7057 14.0747 24.4834C12.8482 24.2333 11.688 23.7334 10.6682 23.0156C9.02952 21.87 7.79912 20.2426 7.15255 18.3655C6.49522 16.4532 6.49522 14.3801 7.15255 12.4678C7.61279 11.1274 8.37364 9.90698 9.3783 8.89761C10.528 7.72131 11.9836 6.88048 13.5853 6.46738C15.187 6.05428 16.873 6.08487 18.4583 6.55579C19.6968 6.93107 20.8293 7.58705 21.7654 8.47139C22.7078 7.54552 23.6485 6.61725 24.5876 5.68659C25.0725 5.18614 25.6011 4.70963 26.0787 4.19721C24.6495 2.88387 22.972 1.86186 21.1423 1.18972C17.8102 -0.00516364 14.1643 -0.0372749 10.8112 1.09873Z" fill="white"/>
<path d="M10.8113 1.09867C14.1641 -0.038104 17.81 -0.00683799 21.1423 1.18726C22.9724 1.86398 24.6491 2.8909 26.0763 4.20912C25.5914 4.72155 25.0798 5.20045 24.5852 5.6985C23.6445 6.62597 22.7046 7.55025 21.7655 8.47133C20.8293 7.58699 19.6968 6.93101 18.4583 6.55573C16.8736 6.08316 15.1876 6.0508 13.5855 6.46221C11.9833 6.87362 10.5269 7.7129 9.37591 8.88798C8.37125 9.89734 7.6104 11.1178 7.15015 12.4582L2.12402 8.615C3.92307 5.09164 7.03802 2.39654 10.8113 1.09867Z" fill="#E33629"/>
<path d="M0.790874 12.4222C1.06082 11.0999 1.50934 9.81941 2.12439 8.61499L7.15052 12.4677C6.49319 14.38 6.49319 16.4531 7.15052 18.3654C5.47595 19.6425 3.80057 20.9259 2.12439 22.2158C0.585151 19.1899 0.115711 15.7422 0.790874 12.4222Z" fill="#F8BD00"/>
<path d="M15.8253 12.5779H30.2563C30.7497 15.2524 30.6162 18.003 29.866 20.6186C29.1755 23.0238 27.8344 25.1977 25.9867 26.9066C24.3646 25.6566 22.7353 24.4163 21.1133 23.1664C21.9175 22.6307 22.6038 21.9401 23.1313 21.1361C23.6587 20.3322 24.0164 19.4313 24.1828 18.4875H15.8253C15.8229 16.5192 15.8253 14.5486 15.8253 12.5779Z" fill="#587DBD"/>
<path d="M2.12109 22.2158C3.79728 20.9388 5.47266 19.6553 7.14723 18.3655C7.79509 20.2432 9.02725 21.8708 10.6677 23.0156C11.6907 23.73 12.8534 24.2259 14.0815 24.4715C15.2915 24.6937 16.5326 24.6937 17.7426 24.4715C18.9491 24.27 20.0996 23.8214 21.12 23.1545C22.7421 24.4044 24.3714 25.6448 25.9934 26.8947C24.2184 28.4888 22.0545 29.6002 19.7138 30.1201C17.1302 30.7199 14.4377 30.6912 11.8679 30.0363C9.83535 29.5003 7.93685 28.5555 6.29135 27.261C4.54985 25.8953 3.12737 24.1743 2.12109 22.2158Z" fill="#319F43"/>
</g>
<defs>
<clipPath id="clip0_893_186">
<rect width="31.0345" height="30.6496" fill="white" transform="translate(0 0.0905762)"/>
</clipPath>
</defs>
</svg>
