<svg width="251" height="79" viewBox="0 0 251 79" fill="none" xmlns="http://www.w3.org/2000/svg">
<path d="M24.5028 22.4545V26.3253H0.319602V22.4545H24.5028ZM8.27415 77V13.9673C8.27415 11.2211 8.90152 8.87736 10.1562 6.93608C11.411 4.99479 13.0563 3.51515 15.0923 2.49716C17.152 1.47916 19.3655 0.970169 21.733 0.970169C22.9877 0.970169 24.053 1.0767 24.929 1.28977C25.8286 1.47916 26.6098 1.70407 27.2727 1.96449L25.9943 5.79971C25.4498 5.61032 24.858 5.4446 24.2188 5.30256C23.6032 5.16051 22.8693 5.08949 22.017 5.08949C19.2708 5.08949 17.0099 5.92992 15.2344 7.61079C13.4588 9.29166 12.571 11.6354 12.571 14.642L12.5355 77H8.27415ZM51.1719 78.1719C48.0232 78.1719 45.1349 77.5445 42.5071 76.2898C39.9029 75.035 37.8078 73.2003 36.2216 70.7855C34.6591 68.3707 33.8778 65.4351 33.8778 61.9787C33.8778 59.706 34.2803 57.7055 35.0852 55.9773C35.8902 54.2491 37.133 52.7576 38.8139 51.5028C40.4948 50.2481 42.6491 49.2183 45.277 48.4134C47.9048 47.5848 51.0417 46.9455 54.6875 46.4957C57.4574 46.1643 59.9313 45.8447 62.1094 45.5369C64.2874 45.2055 65.992 44.6965 67.223 44.0099C68.4777 43.3234 69.1051 42.2817 69.1051 40.8849V38.6122C69.1051 34.6349 67.8504 31.4744 65.3409 29.1307C62.8314 26.7869 59.375 25.6151 54.9716 25.6151C51.0653 25.6151 47.7746 26.4792 45.0994 28.2074C42.4479 29.9119 40.5895 32.1136 39.5241 34.8125L35.4403 33.2855C36.482 30.6813 37.9853 28.5152 39.9503 26.7869C41.9389 25.0587 44.2116 23.7685 46.7685 22.9162C49.349 22.0639 52.0478 21.6378 54.8651 21.6378C57.3035 21.6378 59.6236 21.9811 61.8253 22.6676C64.0507 23.3542 66.0275 24.3958 67.7557 25.7926C69.5076 27.1894 70.8925 28.9768 71.9105 31.1548C72.9285 33.3092 73.4375 35.8897 73.4375 38.8963V77H69.1051V67.1634H68.7855C67.8385 69.1993 66.5365 71.0578 64.8793 72.7386C63.2457 74.3958 61.2689 75.7216 58.9489 76.7159C56.6525 77.6866 54.0601 78.1719 51.1719 78.1719ZM51.598 74.1591C55.0071 74.1591 58.0256 73.3305 60.6534 71.6733C63.3049 69.9924 65.3764 67.696 66.8679 64.7841C68.3594 61.8722 69.1051 58.5696 69.1051 54.8764V46.8509C68.5606 47.3243 67.7675 47.7505 66.7259 48.1293C65.7079 48.4844 64.5478 48.804 63.2457 49.0881C61.9673 49.3485 60.6179 49.5852 59.1974 49.7983C57.8007 49.9877 56.4394 50.1652 55.1136 50.331C51.1364 50.8045 47.893 51.5384 45.3835 52.5327C42.8977 53.5033 41.0748 54.7817 39.9148 56.3679C38.7784 57.9541 38.2102 59.8717 38.2102 62.1207C38.2102 65.8376 39.4886 68.7732 42.0455 70.9276C44.6023 73.0819 47.7865 74.1591 51.598 74.1591ZM95.9339 41.6307V77H91.6016V22.4545H95.8274V31.0838H96.2536C97.532 28.2666 99.5798 26.0057 102.397 24.3011C105.214 22.5966 108.564 21.7443 112.447 21.7443C116.116 21.7443 119.336 22.5256 122.106 24.0881C124.899 25.6506 127.077 27.8759 128.64 30.7642C130.226 33.6288 131.019 37.0497 131.019 41.027V77H126.687V41.2045C126.687 36.5644 125.302 32.8357 122.532 30.0185C119.786 27.1776 116.152 25.7571 111.63 25.7571C108.6 25.7571 105.901 26.42 103.533 27.7457C101.166 29.0715 99.3075 30.9299 97.9581 33.321C96.6087 35.6884 95.9339 38.4583 95.9339 41.6307ZM157.156 22.4545L168.164 42.5895L179.35 22.4545H192.951L176.509 49.7273L193.235 77H179.705L168.164 57.3622L156.729 77H143.093L159.712 49.7273L143.519 22.4545H157.156ZM224.636 78.0653C219.309 78.0653 214.693 76.8935 210.787 74.5497C206.88 72.206 203.85 68.9271 201.696 64.7131C199.565 60.4991 198.5 55.5748 198.5 49.9403C198.5 44.3059 199.565 39.3698 201.696 35.1321C203.85 30.8944 206.88 27.6037 210.787 25.2599C214.693 22.9162 219.309 21.7443 224.636 21.7443C229.963 21.7443 234.579 22.9162 238.485 25.2599C242.392 27.6037 245.41 30.8944 247.541 35.1321C249.695 39.3698 250.772 44.3059 250.772 49.9403C250.772 55.5748 249.695 60.4991 247.541 64.7131C245.41 68.9271 242.392 72.206 238.485 74.5497C234.579 76.8935 229.963 78.0653 224.636 78.0653ZM224.707 67.767C227.595 67.767 230.01 66.974 231.951 65.3878C233.893 63.7779 235.337 61.6236 236.284 58.9247C237.254 56.2259 237.74 53.2192 237.74 49.9048C237.74 46.5668 237.254 43.5483 236.284 40.8494C235.337 38.1269 233.893 35.9607 231.951 34.3509C230.01 32.741 227.595 31.9361 224.707 31.9361C221.748 31.9361 219.286 32.741 217.321 34.3509C215.379 35.9607 213.923 38.1269 212.953 40.8494C212.006 43.5483 211.532 46.5668 211.532 49.9048C211.532 53.2192 212.006 56.2259 212.953 58.9247C213.923 61.6236 215.379 63.7779 217.321 65.3878C219.286 66.974 221.748 67.767 224.707 67.767Z" fill="url(#paint0_linear_893_181)"/>
<defs>
<linearGradient id="paint0_linear_893_181" x1="-7.5" y1="41" x2="282" y2="41" gradientUnits="userSpaceOnUse">
<stop stop-color="#2C94DF"/>
<stop offset="1" stop-color="white" stop-opacity="0.76"/>
</linearGradient>
</defs>
</svg>
