<svg width="201" height="62" viewBox="0 0 201 62" fill="none" xmlns="http://www.w3.org/2000/svg">
<path d="M19.6023 17.3636V20.4602H0.255682V17.3636H19.6023ZM6.61932 61V10.5739C6.61932 8.37689 7.12121 6.50189 8.125 4.94886C9.12879 3.39583 10.4451 2.21212 12.0739 1.39773C13.7216 0.583332 15.4924 0.176135 17.3864 0.176135C18.3902 0.176135 19.2424 0.261362 19.9432 0.431815C20.6629 0.583332 21.2879 0.763257 21.8182 0.97159L20.7955 4.03977C20.3598 3.88826 19.8864 3.75568 19.375 3.64205C18.8826 3.52841 18.2955 3.47159 17.6136 3.47159C15.4167 3.47159 13.608 4.14394 12.1875 5.48864C10.767 6.83333 10.0568 8.70833 10.0568 11.1136L10.0284 61H6.61932ZM40.9375 61.9375C38.4186 61.9375 36.108 61.4356 34.0057 60.4318C31.9223 59.428 30.2462 57.9602 28.9773 56.0284C27.7273 54.0966 27.1023 51.7481 27.1023 48.983C27.1023 47.1648 27.4242 45.5644 28.0682 44.1818C28.7121 42.7992 29.7064 41.6061 31.0511 40.6023C32.3958 39.5985 34.1193 38.7746 36.2216 38.1307C38.3239 37.4678 40.8333 36.9564 43.75 36.5966C45.9659 36.3314 47.9451 36.0758 49.6875 35.8295C51.4299 35.5644 52.7936 35.1572 53.7784 34.608C54.7822 34.0587 55.2841 33.2254 55.2841 32.108V30.2898C55.2841 27.108 54.2803 24.5795 52.2727 22.7045C50.2652 20.8295 47.5 19.892 43.9773 19.892C40.8523 19.892 38.2197 20.5833 36.0795 21.9659C33.9583 23.3295 32.4716 25.0909 31.6193 27.25L28.3523 26.0284C29.1856 23.9451 30.3883 22.2121 31.9602 20.8295C33.5511 19.447 35.3693 18.4148 37.4148 17.733C39.4792 17.0511 41.6383 16.7102 43.892 16.7102C45.8428 16.7102 47.6989 16.9848 49.4602 17.5341C51.2405 18.0833 52.822 18.9167 54.2045 20.0341C55.6061 21.1515 56.714 22.5814 57.5284 24.3239C58.3428 26.0473 58.75 28.1117 58.75 30.517V61H55.2841V53.1307H55.0284C54.2708 54.7595 53.2292 56.2462 51.9034 57.5909C50.5966 58.9167 49.0152 59.9773 47.1591 60.7727C45.322 61.5492 43.2481 61.9375 40.9375 61.9375ZM41.2784 58.7273C44.0057 58.7273 46.4205 58.0644 48.5227 56.7386C50.6439 55.3939 52.3011 53.5568 53.4943 51.2273C54.6875 48.8977 55.2841 46.2557 55.2841 43.3011V36.8807C54.8485 37.2595 54.214 37.6004 53.3807 37.9034C52.5663 38.1875 51.6383 38.4432 50.5966 38.6705C49.5739 38.8788 48.4943 39.0682 47.358 39.2386C46.2405 39.3902 45.1515 39.5322 44.0909 39.6648C40.9091 40.0436 38.3144 40.6307 36.3068 41.4261C34.3182 42.2027 32.8598 43.2254 31.9318 44.4943C31.0227 45.7633 30.5682 47.2973 30.5682 49.0966C30.5682 52.0701 31.5909 54.4186 33.6364 56.142C35.6818 57.8655 38.2292 58.7273 41.2784 58.7273ZM76.7472 32.7045V61H73.2812V17.3636H76.6619V24.267H77.0028C78.0256 22.0133 79.6638 20.2045 81.9176 18.8409C84.1714 17.4773 86.8513 16.7955 89.9574 16.7955C92.893 16.7955 95.4688 17.4205 97.6847 18.6705C99.9195 19.9205 101.662 21.7008 102.912 24.0114C104.181 26.303 104.815 29.0398 104.815 32.2216V61H101.349V32.3636C101.349 28.6515 100.241 25.6686 98.0256 23.4148C95.8286 21.142 92.9214 20.0057 89.304 20.0057C86.8797 20.0057 84.7206 20.536 82.8267 21.5966C80.9328 22.6572 79.446 24.1439 78.3665 26.0568C77.2869 27.9508 76.7472 30.1667 76.7472 32.7045ZM125.724 17.3636L134.531 33.4716L143.48 17.3636H154.361L141.207 39.1818L154.588 61H143.764L134.531 45.2898L125.384 61H114.474L127.77 39.1818L114.815 17.3636H125.724ZM179.709 61.8523C175.447 61.8523 171.754 60.9148 168.629 59.0398C165.504 57.1648 163.08 54.5417 161.357 51.1705C159.652 47.7992 158.8 43.8598 158.8 39.3523C158.8 34.8447 159.652 30.8958 161.357 27.5057C163.08 24.1155 165.504 21.483 168.629 19.608C171.754 17.733 175.447 16.7955 179.709 16.7955C183.97 16.7955 187.663 17.733 190.788 19.608C193.913 21.483 196.328 24.1155 198.033 27.5057C199.756 30.8958 200.618 34.8447 200.618 39.3523C200.618 43.8598 199.756 47.7992 198.033 51.1705C196.328 54.5417 193.913 57.1648 190.788 59.0398C187.663 60.9148 183.97 61.8523 179.709 61.8523ZM179.766 53.6136C182.076 53.6136 184.008 52.9792 185.561 51.7102C187.114 50.4223 188.269 48.6989 189.027 46.5398C189.804 44.3807 190.192 41.9754 190.192 39.3239C190.192 36.6534 189.804 34.2386 189.027 32.0795C188.269 29.9015 187.114 28.1686 185.561 26.8807C184.008 25.5928 182.076 24.9489 179.766 24.9489C177.398 24.9489 175.429 25.5928 173.857 26.8807C172.304 28.1686 171.139 29.9015 170.362 32.0795C169.605 34.2386 169.226 36.6534 169.226 39.3239C169.226 41.9754 169.605 44.3807 170.362 46.5398C171.139 48.6989 172.304 50.4223 173.857 51.7102C175.429 52.9792 177.398 53.6136 179.766 53.6136Z" fill="#FAFDFF"/>
</svg>
